<?xml version="1.0" standalone="no"?>
<!DOCTYPE svg PUBLIC "-//W3C//DTD SVG 20010904//EN"
 "http://www.w3.org/TR/2001/REC-SVG-20010904/DTD/svg10.dtd">
<svg version="1.0" xmlns="http://www.w3.org/2000/svg"
 width="454.000000pt" height="174.000000pt" viewBox="0 0 454.000000 174.000000"
 preserveAspectRatio="xMidYMid meet">

<g transform="translate(0.000000,174.000000) scale(0.100000,-0.100000)"
fill="#000000" stroke="none">
<path d="M0 870 l0 -870 2270 0 2270 0 0 870 0 870 -2270 0 -2270 0 0 -870z
m660 123 c63 -122 118 -225 121 -228 4 -3 59 98 123 224 l117 231 49 0 50 0 0
-335 0 -335 -40 0 -40 0 -2 262 -3 261 -110 -212 -110 -212 -33 3 c-33 3 -36
7 -140 207 l-107 204 -3 -257 -2 -256 -40 0 -40 0 0 336 0 335 47 -3 48 -3
115 -222z m1155 -99 c66 -179 122 -330 123 -335 2 -5 -16 -9 -40 -9 l-43 0
-29 85 -29 86 -145 -3 -145 -3 -30 -82 -30 -83 -38 0 c-22 0 -39 4 -39 8 0 8
144 404 216 595 l26 67 42 0 42 0 119 -326z m457 177 l3 -148 135 148 135 148
48 0 c43 1 60 -10 38 -23 -4 -3 -58 -59 -119 -124 l-112 -119 116 -184 c64
-101 120 -192 125 -201 9 -16 4 -18 -38 -18 l-48 0 -105 170 -105 169 -37 -36
-38 -37 0 -133 0 -133 -40 0 -40 0 0 335 0 335 40 0 39 0 3 -149z m1036 117
l-3 -33 -167 -3 -168 -2 0 -115 0 -115 155 0 155 0 0 -30 0 -29 -152 -3 -153
-3 -3 -117 -3 -118 168 -2 168 -3 3 -32 3 -33 -210 0 -211 0 0 335 0 335 211
0 210 0 -3 -32z m622 0 c110 -64 125 -231 28 -313 -16 -14 -36 -25 -43 -25
-30 0 -23 -24 45 -160 l70 -140 -47 0 -48 1 -67 140 -67 140 -68 -3 -68 -3 -3
-137 -3 -138 -39 0 -40 0 0 336 0 336 153 -3 c143 -4 155 -6 197 -31z"/>
<path d="M1646 1100 c-24 -63 -106 -296 -106 -302 0 -4 52 -8 115 -8 l114 0
-48 138 c-68 190 -68 190 -75 172z"/>
<path d="M3660 1020 l0 -130 85 0 c134 0 184 31 193 118 6 63 -17 108 -63 128
-21 9 -69 14 -125 14 l-90 0 0 -130z"/>
</g>
</svg>
