<?xml version="1.0" standalone="no"?>
<!DOCTYPE svg PUBLIC "-//W3C//DTD SVG 20010904//EN"
 "http://www.w3.org/TR/2001/REC-SVG-20010904/DTD/svg10.dtd">
<svg version="1.0" xmlns="http://www.w3.org/2000/svg"
 width="357.000000pt" height="100.000000pt" viewBox="0 0 357.000000 100.000000"
 preserveAspectRatio="xMidYMid meet">

<g transform="translate(0.000000,156.000000) scale(0.100000,-0.100000)"
fill="#000000" stroke="none">
<path d="M2220 1315 l0 -85 -40 0 -40 0 0 -55 0 -55 40 0 40 0 0 -122 c0 -177
20 -231 97 -264 61 -26 201 -10 189 22 -3 7 -10 31 -16 52 -10 39 -11 40 -44
32 -43 -9 -78 6 -87 40 -4 14 -7 73 -8 133 l-1 107 75 0 75 0 0 55 0 54 -72 3
-73 3 -3 83 -3 82 -64 0 -65 0 0 -85z"/>
<path d="M399 1241 c-162 -34 -255 -231 -179 -381 93 -183 381 -195 470 -20
l19 37 -52 13 c-29 7 -57 15 -63 17 -6 2 -14 -5 -17 -16 -2 -11 -24 -29 -48
-41 -93 -48 -189 2 -204 104 -9 58 14 122 52 150 58 42 166 27 194 -27 6 -12
13 -23 14 -25 2 -2 30 4 63 13 68 19 70 28 21 88 -55 67 -179 107 -270 88z"/>
<path d="M1240 1241 c-121 -26 -200 -131 -200 -266 1 -115 50 -189 155 -236
67 -30 171 -31 235 -2 41 18 120 91 120 112 0 5 -24 15 -52 23 -52 15 -54 15
-78 -8 -36 -33 -107 -48 -158 -35 -44 12 -92 60 -92 92 0 18 9 19 195 19 l195
0 0 58 c0 64 -31 142 -71 179 -55 50 -172 81 -249 64z m139 -123 c22 -14 51
-60 51 -82 0 -14 -18 -16 -130 -16 -122 0 -130 1 -130 19 0 29 47 79 83 90 37
12 99 6 126 -11z"/>
<path d="M1765 1241 c-75 -19 -131 -67 -165 -144 -82 -185 33 -381 225 -381
60 1 109 18 134 48 19 23 31 20 31 -9 0 -24 2 -25 65 -25 l65 0 0 250 0 250
-65 0 c-63 0 -65 -1 -65 -25 0 -31 -3 -31 -43 -1 -30 23 -102 47 -137 45 -8
-1 -28 -4 -45 -8z m172 -142 c56 -52 69 -141 30 -200 -59 -89 -186 -90 -244
-3 -26 40 -24 134 3 171 48 66 156 82 211 32z"/>
<path d="M2720 1241 c-47 -10 -110 -44 -137 -73 -60 -65 -87 -178 -64 -264 34
-128 180 -212 318 -184 242 51 290 388 70 494 -57 28 -133 39 -187 27z m129
-129 c45 -24 71 -74 71 -135 0 -63 -23 -102 -75 -127 -51 -25 -90 -25 -134 -2
-45 24 -71 74 -71 135 0 65 22 105 73 128 53 24 93 24 136 1z"/>
<path d="M942 1223 c-18 -9 -37 -24 -43 -34 -15 -28 -29 -23 -29 11 l0 30 -65
0 -65 0 0 -250 0 -250 64 0 64 0 4 148 c5 163 16 200 68 227 16 8 45 15 65 15
l35 0 0 60 0 60 -32 0 c-18 0 -48 -8 -66 -17z"/>
<path d="M3282 1220 c-18 -11 -35 -27 -38 -35 -10 -25 -24 -17 -24 15 l0 30
-65 0 -65 0 0 -250 0 -250 65 0 65 0 0 133 c0 72 5 148 10 168 15 53 50 81
110 87 l50 5 0 58 0 59 -37 0 c-21 0 -53 -9 -71 -20z"/>
</g>
</svg>
